<?xml version="1.0" encoding="UTF-8"?>
<svg width="120px" height="120px" viewBox="0 0 120 120" version="1.1" xmlns="http://www.w3.org/2000/svg" xmlns:xlink="http://www.w3.org/1999/xlink">
    <title>user-contributed</title>
    <g id="user-contributed" stroke="none" stroke-width="1" fill="none" fill-rule="evenodd">
        <path d="M59.9544907,0 C66.5048557,0 72.7747427,1.01592517 78.7641518,3.0477755 C84.7536851,5.07962583 90.2501461,7.94542605 95.2535349,11.6451761 C100.257545,15.3449262 104.609425,19.696713 108.309175,24.7005365 C112.008925,29.7042979 114.882333,35.193275 116.9294,41.1674677 C118.976467,47.1417226 120,53.4192178 120,59.9999534 C120,66.5503805 118.976467,72.8202676 116.9294,78.8096146 C114.882333,84.7990112 112.016378,90.2956027 108.331534,95.2993889 C104.64731,100.3032 100.295741,104.647403 95.2768252,108.331999 C90.2579096,112.016595 84.7612622,114.882395 78.7868832,116.9294 C72.8126904,118.976405 66.5503805,119.999907 59.9999534,119.999907 C53.4192178,119.999907 47.1417536,118.976405 41.1675609,116.9294 C35.193306,114.882395 29.6967208,112.016595 24.6778051,108.331999 C19.6588274,104.647403 15.3070406,100.3032 11.6224448,95.2993889 C7.93784892,90.2956027 5.07962583,84.7990112 3.0477755,78.8096146 C1.01592517,72.8202676 0,66.5503805 0,59.9999534 C0,53.4192178 1.01592517,47.1417226 3.0477755,41.1674677 C5.07962583,35.193275 7.93784892,29.7042979 11.6224448,24.7005365 C15.3070406,19.696713 19.6512192,15.3449262 24.6549806,11.6451761 C29.6588041,7.94542605 35.1478122,5.07962583 41.122005,3.0477755 C47.0962598,1.01592517 53.373755,0 59.9544907,0 Z M59.9999534,79.6511416 C54.6322415,79.6511416 49.5905323,80.3031783 44.874826,81.6072517 C40.1591818,82.9112381 35.9666389,84.7762705 32.2971973,87.2023489 C28.6277557,89.6284273 25.6861221,92.5397213 23.4722965,95.936231 C26.4442697,99.1204631 29.8938503,101.857387 33.8210385,104.147002 C37.7482266,106.436599 41.9483777,108.195518 46.4214917,109.423758 C50.8945436,110.651936 55.4206975,111.266025 59.9999534,111.266025 C64.5791472,111.266025 69.1053011,110.651936 73.5784151,109.423758 C78.051467,108.195518 82.2593194,106.436599 86.2019724,104.147002 C90.1439421,101.857387 93.5707293,99.1204631 96.4823339,95.936231 C94.2681977,92.5093942 91.3112546,89.5829366 87.6115045,87.1568582 C83.9118786,84.7307612 79.7118207,82.8732842 75.0113308,81.5844271 C70.3107787,80.2955701 65.3069863,79.6511416 59.9999534,79.6511416 Z M59.9999534,25.3373879 C56.2092157,25.3373879 52.7747893,26.3381278 49.6966742,28.3396075 C46.6186213,30.3411493 44.1773886,32.9946657 42.3729764,36.3001567 C40.5685641,39.6057099 39.6815122,43.2448429 39.7118207,47.217556 C39.7118207,51.4328613 40.6064497,55.223599 42.3957077,58.5897692 C44.1849658,61.9559393 46.6110441,64.6170639 49.6739428,66.573143 C52.7368415,68.5291599 56.1788451,69.5223226 59.9999534,69.5526311 C63.8209997,69.5829397 67.2630032,68.6125083 70.325964,66.6413371 C73.3888627,64.6701659 75.8149411,61.9938871 77.6041991,58.6125006 C79.393395,55.2311762 80.287993,51.4328613 80.287993,47.217556 C80.287993,43.2448429 79.3858179,39.6057099 77.5814677,36.3001567 C75.7770554,32.9946657 73.3357918,30.3411493 70.2576767,28.3396075 C67.1796237,26.3381278 63.7603826,25.3373879 59.9999534,25.3373879 Z" id="形状结合" fill="#000000" fill-rule="nonzero"></path>
        <path d="M59.9999534,111.266025 C55.4206975,111.266025 50.8945436,110.651936 46.4214917,109.423758 C41.9483777,108.195518 37.7482266,106.436599 33.8210385,104.147002 C29.8938503,101.857387 26.4442697,99.1204631 23.4722965,95.936231 C25.6861221,92.5397213 28.6277557,89.6284273 32.2971973,87.2023489 C35.9666389,84.7762705 40.1591818,82.9112381 44.874826,81.6072517 C49.5905323,80.3031783 54.6322415,79.6511416 59.9999534,79.6511416 C65.3069863,79.6511416 70.3107787,80.2955701 75.0113308,81.5844271 C79.7118207,82.8732842 83.9118786,84.7307612 87.6115045,87.1568582 C91.3112546,89.5829366 94.2681977,92.5093942 96.4823339,95.936231 C93.5707293,99.1204631 90.1439421,101.857387 86.2019724,104.147002 C82.2593194,106.436599 78.051467,108.195518 73.5784151,109.423758 C69.1053011,110.651936 64.5791472,111.266025 59.9999534,111.266025 Z" id="路径" fill-opacity="0.2" fill="#000000" fill-rule="nonzero"></path>
        <path d="M59.9999534,69.5526311 C56.1788451,69.5223226 52.7368415,68.5291599 49.6739428,66.573143 C46.6110441,64.6170639 44.1849658,61.9559393 42.3957077,58.5897692 C40.6064497,55.223599 39.7118207,51.4328613 39.7118207,47.217556 C39.6815122,43.2448429 40.5685641,39.6057099 42.3729764,36.3001567 C44.1773886,32.9946657 46.6186213,30.3411493 49.6966742,28.3396075 C52.7747893,26.3381278 56.2092157,25.3373879 59.9999534,25.3373879 C63.7603826,25.3373879 67.1796237,26.3381278 70.2576767,28.3396075 C73.3357918,30.3411493 75.7770554,32.9946657 77.5814677,36.3001567 C79.3858179,39.6057099 80.287993,43.2448429 80.287993,47.217556 C80.287993,51.4328613 79.393395,55.2311762 77.6041991,58.6125006 C75.8149411,61.9938871 73.3888627,64.6701659 70.325964,66.6413371 C67.2630032,68.6125083 63.8209997,69.5829397 59.9999534,69.5526311 Z" id="路径" fill-opacity="0.1" fill="#000000" fill-rule="nonzero"></path>
    </g>
</svg>