<?xml version="1.0" encoding="UTF-8"?>
<svg width="120px" height="120px" viewBox="0 0 120 120" version="1.1" xmlns="http://www.w3.org/2000/svg" xmlns:xlink="http://www.w3.org/1999/xlink">
    <title>warning</title>
    <g id="warning" stroke="none" stroke-width="1" fill="none" fill-rule="evenodd">
        <path d="M15.6870229,105.07588 C11.6793893,105.07588 9.27480916,102.006225 9.27480916,98.5389474 C9.27480916,97.4588564 9.50381679,96.0946459 10.1335878,94.9010526 L54.5038168,18.1073684 C55.7060153,16.0042105 57.881771,15.0947368 60,15.0947368 C62.118229,15.0947368 64.2366412,16.0042105 65.4390229,18.1073684 L109.80916,94.9578038 C110.43884,96.1515789 110.725191,97.4588564 110.725191,98.5389474 C110.725191,102.006225 108.206107,105.07588 104.255634,105.07588 L15.6870229,105.07588 Z" id="Path" fill-opacity="0.2" fill="#000000"></path>
        <path d="M60,6 C65.2671756,6 70.3625038,8.61473684 73.3396031,13.7873684 L117.767084,90.6378038 C119.198473,93.1388564 120,95.9242105 120,98.5956985 C120,107.292632 114.102962,114 104.370321,114 L15.629771,114 C5.89694656,114 0,107.292632 0,98.5956985 C0,95.9242105 0.687022901,93.1957895 2.23282443,90.6378038 L46.6603969,13.7873684 C49.5801527,8.61473684 54.7328244,6 60,6 Z M60,15.0947368 C57.881771,15.0947368 55.7060153,16.0042105 54.5038168,18.1073684 L10.1335878,94.9010526 C9.50381679,96.0946459 9.27480916,97.4588564 9.27480916,98.5389474 C9.27480916,102.006225 11.6793893,105.07588 15.6870229,105.07588 L104.255634,105.07588 C108.206107,105.07588 110.725191,102.006225 110.725191,98.5389474 C110.725191,97.4588564 110.43884,96.1515789 109.80916,94.9578038 L65.4390229,18.1073684 C64.2366412,16.0042105 62.118229,15.0947368 60,15.0947368 Z M61,81.9804302 C64.2778667,81.9804302 67,84.5807254 67,87.9902151 C67,91.341641 64.2222222,94 61,94 C57.7777778,94 55,91.2839471 55,87.9902151 C55,84.6384194 57.7221333,81.9804302 61,81.9804302 Z M60.9445333,35 C63.8888889,35 66.1111111,37.1958829 66.0556444,40.1430815 L65.2776889,70.5964183 C65.2222222,73.6013107 63.6666667,75.2193297 61,75.2193297 C58.2222222,75.2193297 56.6666667,73.5434319 56.6110222,70.5964183 L55.8888889,40.0852026 C55.8334222,37.138189 57.9443556,35 60.9445333,35 Z" id="Combined-Shape" fill-opacity="0.85" fill="#000000" fill-rule="nonzero"></path>
    </g>
</svg>