<?xml version="1.0" encoding="UTF-8"?>
<svg width="120px" height="120px" viewBox="0 0 120 120" version="1.1" xmlns="http://www.w3.org/2000/svg" xmlns:xlink="http://www.w3.org/1999/xlink">
    <title>upgrade</title>
    <g id="upgrade" stroke="none" stroke-width="1" fill="none" fill-rule="evenodd">
        <path d="M59.534322,119.595705 C67.7521639,119.595705 75.4749381,118.034368 82.7026444,114.911693 C89.9303508,111.789018 96.3041335,107.451968 101.823993,101.900543 C107.343751,96.3490665 111.675417,89.954992 114.818991,82.7183189 C117.962565,75.4816459 119.534352,67.7741104 119.534352,59.595705 C119.534352,51.4173148 117.962565,43.7097286 114.818991,36.472954 C111.675417,29.236281 107.331331,22.8422572 101.786733,17.2908826 C96.2422374,11.7394066 89.8561362,7.40236668 82.6284299,4.27976292 C75.4007235,1.15705764 67.6779494,-0.404295 59.4601074,-0.404295 C51.2918432,-0.404295 43.5938579,1.15705764 36.3661516,4.27976292 C29.1384452,7.40236668 22.7770316,11.7394066 17.2819105,17.2908826 C11.7868909,22.8422572 7.4676041,29.236281 4.32405015,36.472954 C1.18049621,43.7097286 -0.391280759,51.4173148 -0.391280759,59.595705 C-0.391280759,67.7741104 1.18049621,75.4816459 4.32405015,82.7183189 C7.4676041,89.954992 11.79926,96.3490665 17.3190178,101.900543 C22.838877,107.451968 29.2126598,111.789018 36.4403661,114.911693 C43.6680725,118.034368 51.3660577,119.595705 59.534322,119.595705 Z M59.9970037,108.595705 C53.2774459,108.595705 46.9902182,107.349267 41.1353206,104.856391 C35.2803217,102.363515 30.1417917,98.8956777 25.7197305,94.4528787 C21.2976694,90.0101605 17.8390794,84.8516739 15.3439607,78.9774189 C12.8488419,73.1030627 11.6012825,66.8091531 11.6012825,60.0956898 C11.6012825,53.3822266 12.8364968,47.0883169 15.3069255,41.2139608 C17.7773541,35.3397057 21.223599,30.1811686 25.6456602,25.7383493 C30.0677214,21.2956312 35.2062008,17.8278443 41.0610984,15.3349886 C46.9160972,12.8421329 53.2033755,11.595705 59.9229333,11.595705 C66.6919725,11.595705 73.003941,12.8421329 78.8588386,15.3349886 C84.7137362,17.8278443 89.8646113,21.2956312 94.3114638,25.7383493 C98.7582151,30.1811686 102.241495,35.3397057 104.761304,41.2139608 C107.281214,47.0883169 108.541169,53.3822266 108.541169,60.0956898 C108.541169,66.8091531 107.293559,73.1030627 104.798339,78.9774189 C102.30322,84.8516739 98.8446305,90.0101605 94.4225693,94.4528787 C90.0005082,98.8956777 84.8496331,102.363515 78.9699441,104.856391 C73.0903564,107.349267 66.7660429,108.595705 59.9970037,108.595705 Z" id="Shape" fill="#333333" fill-rule="nonzero"></path>
        <path d="M59.9627632,30.1115399 C58.5262472,30.1115399 57.3374187,30.5824022 56.3962775,31.524127 C55.4551364,32.4659533 54.9845658,33.6555698 54.9845658,35.0929765 L54.9845658,61.3382881 L55.504542,74.57248 L50.0804769,67.6580053 L44.0618706,61.6356669 C43.0712224,60.6444044 41.8823939,60.1487731 40.495385,60.1487731 C39.1578831,60.1487731 38.0309384,60.6072511 37.1145507,61.5242069 C36.1981631,62.4411628 35.7399693,63.5935753 35.7399693,64.9814443 C35.7399693,66.3693133 36.1609821,67.5093413 37.0030077,68.4015283 L56.0990831,87.3605276 C57.3869765,88.6493211 58.6748698,89.2937179 59.9627632,89.2937179 C61.3002651,89.2937179 62.6129627,88.6493211 63.9008561,87.3605276 L82.8482581,68.4015283 C83.7893993,67.5093413 84.2599698,66.3693133 84.2599698,64.9814443 C84.2599698,63.5935753 83.7893993,62.4411628 82.8482581,61.5242069 C81.907117,60.6072511 80.7430419,60.1487731 79.356033,60.1487731 C77.9195171,60.1487731 76.755442,60.6444044 75.8638079,61.6356669 L69.9194623,67.6580053 L64.4209844,74.6467866 L64.8668522,61.3382881 L64.8668522,35.0929765 C64.8668522,33.6555698 64.4086584,32.4659533 63.4922707,31.524127 C62.5757817,30.5824022 61.3992792,30.1115399 59.9627632,30.1115399 Z" id="Path" fill="#000000" fill-rule="nonzero" transform="translate(60, 59.7026) rotate(-180) translate(-60, -59.7026)"></path>
    </g>
</svg>