<?xml version="1.0" encoding="UTF-8"?>
<svg width="120px" height="120px" viewBox="0 0 120 120" version="1.1" xmlns="http://www.w3.org/2000/svg" xmlns:xlink="http://www.w3.org/1999/xlink">
    <title>search-index-error</title>
    <g id="search-index-error" stroke="none" stroke-width="1" fill="none" fill-rule="evenodd">
        <path d="M102,16.1099805 L102,71.646148 C99.8263875,68.3515684 96.9489417,65.5413168 93.5767701,63.4303034 L93.5767701,16.2127566 C93.5767701,11.1333872 90.5946869,8.26025503 85.3628151,8.26025503 L30.6372686,8.26025503 C25.1961219,8.26025503 22.4233136,11.1846111 22.4233136,16.2127566 L22.4233136,93.7873255 C22.4233136,98.8665307 25.1961219,101.739663 30.6372686,101.739663 L54.7273177,101.739663 C56.9064551,105.057884 59.80148,107.882584 63.1990994,110 L30.2187189,110 C19.4412304,110 14,104.612795 14,93.8897732 L14,16.1099805 C14,5.38712285 19.4412304,0 30.2187189,0 L85.7813648,0 C96.6112558,0 102,5.335899 102,16.1099805 Z" id="Path" fill-opacity="0.8" fill="#000000" fill-rule="nonzero"></path>
        <rect id="Rectangle" fill-opacity="0.6" fill="#000000" x="35" y="23" width="46" height="8" rx="4"></rect>
        <rect id="Rectangle-Copy" fill-opacity="0.4" fill="#000000" x="35" y="42" width="46" height="8" rx="4"></rect>
        <rect id="Rectangle-Copy-2" fill-opacity="0.2" fill="#000000" x="35" y="61" width="25" height="8" rx="4"></rect>
        <path d="M79.1581028,108.984314 C90.7322972,108.984314 100.26375,99.5276173 100.26375,87.9921569 C100.26375,76.5089067 90.7322972,67 79.1581028,67 C67.5316206,67 58,76.5089067 58,87.9921569 C58,99.5276173 67.5316206,108.984314 79.1581028,108.984314 Z M79.1581028,101.969691 C71.45957,101.969691 65.0700743,95.6304753 65.0700743,87.9402792 C65.0700743,80.3540047 71.45957,74.014789 79.1581028,74.014789 C86.8566356,74.014789 93.2461312,80.3540047 93.2461312,87.9402792 C93.2461312,95.6304753 86.8566356,101.969691 79.1581028,101.969691 Z M106.810277,120 C109.219368,120 111,118.181456 111,115.583416 C111,114.440279 110.423997,113.34902 109.586052,112.517647 L95.8645407,98.8520439 L89.527668,104.931539 L103.196557,118.389299 C104.243987,119.480558 105.343874,120 106.810277,120 Z" id="Shape" fill="#000000" fill-rule="nonzero"></path>
        <path d="M79.0109194,92 C80.0598755,92 80.6717666,91.4367816 80.6935849,90.3908046 L80.9996004,79.7902621 C81.0214187,78.7643678 80.1472885,78 78.9891011,78 C77.8089554,78 76.9786017,78.7442851 77.00042,79.7701149 L77.2844774,90.3908046 C77.3063656,91.4166345 77.9182567,92 79.0109194,92 Z M79,98 C80.0740741,98 81,97.1153231 81,96 C81,94.8653538 80.0926222,94 79,94 C77.9073778,94 77,94.8845538 77,96 C77,97.0961231 77.9259259,98 79,98 Z" id="Shape" fill-opacity="0.8" fill="#000000" fill-rule="nonzero"></path>
    </g>
</svg>