<?xml version="1.0" encoding="UTF-8"?>
<svg width="120px" height="120px" viewBox="0 0 120 120" version="1.1" xmlns="http://www.w3.org/2000/svg" xmlns:xlink="http://www.w3.org/1999/xlink">
    <title>local</title>
    <g id="local" stroke="none" stroke-width="1" fill="none" fill-rule="evenodd">
        <path d="M29.6433184,11 C31.3693718,11 32.8753129,11.1236806 34.1611416,11.3710417 C35.4468982,11.6184028 36.6269632,12.0247611 37.7013368,12.5901166 C38.7757826,13.1555445 39.8942364,13.9329806 41.0566982,14.9224251 L41.0566982,14.9224251 L44.2799273,17.5726918 C45.6185656,18.7034752 46.9043582,19.5073988 48.1373051,19.9844627 C49.370252,20.4614543 50.8849947,20.6999501 52.6815332,20.6999501 L52.6815332,20.6999501 L103.408243,20.6999501 C108.903478,20.6999501 113.042399,22.0780945 115.825007,24.8343835 C118.608336,27.5906724 120,31.6897892 120,37.1317339 L120,37.1317339 L120,91.568303 C120,97.0455354 118.679037,101.15346 116.037111,103.892076 C113.395185,106.630692 109.71402,108 104.993615,108 L104.993615,108 L16.5917568,108 C11.0611712,108 6.91323199,106.630692 4.1479392,103.892076 C1.3826464,101.15346 0,97.0455354 0,91.568303 L0,91.568303 L0,26.9546837 C0,21.6187613 1.26815332,17.6256667 3.80445996,14.9754 C6.34076661,12.3251333 9.93387971,11 14.5837993,11 L14.5837993,11 Z M111,48 L8,48 L8,90.6766119 C8,93.4334022 8.70462225,95.5098311 10.1138667,96.9058987 C11.5231834,98.3019662 13.549022,99 16.1913825,99 L16.1913825,99 L102.754935,99 C105.362589,99 107.38868,98.3019662 108.833208,96.9058987 C110.277736,95.5098311 111,93.451071 111,90.7296184 L111,90.7296184 L111,48 Z M26.9722003,19 L15.8214477,19 C13.284721,19 11.3469827,19.6715378 10.0082329,21.0146134 C8.66941098,22.3576166 8,24.3368345 8,26.9522671 L8,26.9522671 L8,40 L111,40 L111,37.131195 C111,34.3743975 110.277736,32.2891378 108.833208,30.8754159 C107.38868,29.461694 105.362589,28.7548331 102.754935,28.7548331 L102.754935,28.7548331 L49.9607583,28.7548331 C48.234468,28.7548331 46.7195175,28.6311297 45.4159069,28.3837229 C44.1123683,28.1363162 42.9144997,27.7298467 41.8223009,27.1643145 C40.7301022,26.5988547 39.6202978,25.8389728 38.4928877,24.8846689 L38.4928877,24.8846689 L35.2692166,22.1809285 C33.9303946,21.0499366 32.6532645,20.2370338 31.4378263,19.7422203 C30.222316,19.2474068 28.733774,19 26.9722003,19 L26.9722003,19 Z" id="形状结合" fill="#000000" fill-rule="nonzero"></path>
        <path d="M8,40 L8,26.9522671 C8,24.3368345 8.66941098,22.3576166 10.0082329,21.0146134 C11.3469827,19.6715378 13.284721,19 15.8214477,19 L26.9722003,19 C28.733774,19 30.222316,19.2474068 31.4378263,19.7422203 C32.6532645,20.2370338 33.9303946,21.0499366 35.2692166,22.1809285 L38.4928877,24.8846689 C39.6202978,25.8389728 40.7301022,26.5988547 41.8223009,27.1643145 C42.9144997,27.7298467 44.1123683,28.1363162 45.4159069,28.3837229 C46.7195175,28.6311297 48.234468,28.7548331 49.9607583,28.7548331 L102.754935,28.7548331 C105.362589,28.7548331 107.38868,29.461694 108.833208,30.8754159 C110.277736,32.2891378 111,34.3743975 111,37.131195 L111,40 L8,40 Z" id="路径" fill-opacity="0.2" fill="#000000" fill-rule="nonzero"></path>
        <path d="M16.1913825,99 C13.549022,99 11.5231834,98.3019662 10.1138667,96.9058987 C8.70462225,95.5098311 8,93.4334022 8,90.6766119 L8,48 L111,48 L111,90.7296184 C111,93.451071 110.277736,95.5098311 108.833208,96.9058987 C107.38868,98.3019662 105.362589,99 102.754935,99 L16.1913825,99 Z" id="路径" fill-opacity="0.4" fill="#000000" fill-rule="nonzero"></path>
        <polygon id="路径" fill="#000000" fill-rule="nonzero" points="5 48 115 48 115 40 5 40"></polygon>
    </g>
</svg>