<?xml version="1.0" encoding="UTF-8"?>
<svg width="120px" height="120px" viewBox="0 0 120 120" version="1.1" xmlns="http://www.w3.org/2000/svg" xmlns:xlink="http://www.w3.org/1999/xlink">
    <title>installed</title>
    <g id="installed" stroke="none" stroke-width="1" fill="none" fill-rule="evenodd">
        <path d="M16.0531839,119 L103.914841,119 C109.203083,119 113.205869,117.641021 115.923198,114.923063 C118.641066,112.205158 120,108.221404 120,102.9718 L120,73.8513167 C120,72.2882119 119.918986,70.9525962 119.756958,69.8444697 C119.594392,68.7363432 119.315285,67.7268413 118.919635,66.8159641 C118.524525,65.905087 117.966309,64.9489989 117.24499,63.9477 L99.4181669,40.2229583 C97.5540401,37.7304047 95.7986495,35.6708465 94.1519952,34.044284 C92.5053409,32.4177215 90.6802408,31.2102394 88.6766947,30.4218376 C86.6731487,29.63349 84.2058587,29.2393162 81.2748248,29.2393162 L74.4478574,29.2393162 L45.5851672,29.2393162 L38.7183119,29.2393162 C35.787601,29.2393162 33.3150357,29.63349 31.300616,30.4218376 C29.2861964,31.2102394 27.4567898,32.4177215 25.8123963,34.044284 C24.1680029,35.6708465 22.4223555,37.7304047 20.5754543,40.2229583 L2.71544546,63.9477 C2.02055626,64.9489989 1.47434504,65.905087 1.07681179,66.8159641 C0.679224716,67.7268413 0.400359314,68.7363432 0.240215588,69.8444697 C0.0800718628,70.9525962 0,72.2882119 0,73.8513167 L0,102.9718 C0,108.242845 1.35885316,112.231987 4.07655947,114.939225 C6.79431961,117.646408 10.7865277,119 16.0531839,119 Z" id="路径" fill-opacity="0.2" fill="#000000" fill-rule="nonzero"></path>
        <path d="M16.0531839,119 L103.914841,119 C109.203083,119 113.205869,117.641021 115.923198,114.923063 C118.641066,112.205158 120,108.221404 120,102.9718 L120,73.8513167 C120,72.2882119 119.918986,70.9525962 119.756958,69.8444697 C119.594392,68.7363432 119.315285,67.7268413 118.919635,66.8159641 C118.524525,65.905087 117.966309,64.9489989 117.24499,63.9477 L99.4181669,40.2229583 C97.5540401,37.7304047 95.7986495,35.6708465 94.1519952,34.044284 C92.5053409,32.4177215 90.6802408,31.2102394 88.6766947,30.4218376 C86.6731487,29.63349 84.2058587,29.2393162 81.2748248,29.2393162 L74.4478574,29.2393162 L74.4478574,36.52498 L81.8028954,36.52498 C83.6454902,36.52498 85.3911914,37.1057908 87.0399989,38.2674123 C88.6882681,39.4290338 90.0980712,40.779025 91.2694082,42.3173857 L109.481383,67.1505787 C110.299597,68.2159309 110.578435,68.9926373 110.317899,69.4806981 C110.057362,69.9687589 109.339003,70.2127893 108.162822,70.2127893 L76.425296,70.2127893 C75.0736291,70.2127893 74.0850444,70.6082355 73.4595418,71.3991279 C72.833501,72.1899662 72.5204806,73.1056893 72.5204806,74.1462973 L72.5204806,74.3699693 C72.5204806,76.5341351 72.0039834,78.5941263 70.9709891,80.5499431 C69.9385331,82.5057057 68.482867,84.1092296 66.6039908,85.3605149 C64.7252761,86.611746 62.524067,87.2373615 60.0003634,87.2373615 C57.4549125,87.2373615 55.2469477,86.611746 53.376469,85.3605149 C51.5059903,84.1092296 50.0556533,82.5057057 49.0254581,80.5499431 C47.9952091,78.5941263 47.4800846,76.5341351 47.4800846,74.3699693 L47.4800846,74.1462973 C47.4800846,73.1056893 47.1605777,72.1899662 46.5215639,71.3991279 C45.8825501,70.6082355 44.900398,70.2127893 43.5751077,70.2127893 L11.8697184,70.2127893 C10.6503652,70.2127893 9.92786131,69.9513243 9.70220669,69.4283943 C9.47649824,68.9054101 9.73800352,68.1461383 10.4867225,67.1505787 L28.7305111,42.3173857 C29.8759559,40.779025 31.2782497,39.4290338 32.9373926,38.2674123 C34.5965892,37.1057908 36.3500419,36.52498 38.1977506,36.52498 L45.5851672,36.52498 L45.5851672,29.2393162 L38.7183119,29.2393162 C35.787601,29.2393162 33.3150357,29.63349 31.300616,30.4218376 C29.2861964,31.2102394 27.4567898,32.4177215 25.8123963,34.044284 C24.1680029,35.6708465 22.4223555,37.7304047 20.5754543,40.2229583 L2.71544546,63.9477 C2.02055626,64.9489989 1.47434504,65.905087 1.07681179,66.8159641 C0.679224716,67.7268413 0.400359314,68.7363432 0.240215588,69.8444697 C0.0800718628,70.9525962 0,72.2882119 0,73.8513167 L0,102.9718 C0,108.242845 1.35885316,112.231987 4.07655947,114.939225 C6.79431961,117.646408 10.7865277,119 16.0531839,119 Z" id="路径" fill="#000000" fill-rule="nonzero"></path>
        <path d="M60.0163752,68.5726496 C60.5571598,68.5726496 61.0752504,68.467777 61.570647,68.2580319 C62.0660974,68.0482326 62.5712814,67.6869508 63.0861992,67.1741864 L80.5077891,50.1496292 C80.8917591,49.7804258 81.1832321,49.3849164 81.3822082,48.9631011 C81.5811842,48.5412316 81.6806723,48.0547462 81.6806723,47.5036447 C81.6806723,46.475196 81.3209021,45.6254551 80.6013616,44.9544221 C79.8818212,44.2834431 79.0165443,43.9479536 78.0055309,43.9479536 C76.9041716,43.9479536 75.9840418,44.3506005 75.2451415,45.1558942 L67.5480757,53.3092702 L63.7951724,57.5690594 L64.1022677,50.058626 L64.1022677,5.02944261 C64.1022677,3.93394466 63.6994756,2.98849641 62.8938915,2.19309784 C62.0882536,1.39769928 61.1290815,1 60.0163752,1 C58.8769953,1 57.9045133,1.39769928 57.0989292,2.19309784 C56.2933451,2.98849641 55.890553,3.93394466 55.890553,5.02944261 L55.890553,50.058626 L56.2302374,57.5690594 L52.4453096,53.3092702 L44.7549391,45.1558942 C44.0114678,44.3506005 43.0782433,43.9479536 41.9552655,43.9479536 C40.92301,43.9479536 40.0589431,44.2834431 39.3630647,44.9544221 C38.66724,45.6254551 38.3193277,46.475196 38.3193277,47.5036447 C38.3193277,48.0547462 38.4175789,48.5412316 38.6140812,48.9631011 C38.8106372,49.3849164 39.1034009,49.7804258 39.4923722,50.1496292 L56.9072669,67.1741864 C57.443104,67.6869508 57.9599577,68.0482326 58.4578281,68.2580319 C58.9556984,68.467777 59.4752141,68.5726496 60.0163752,68.5726496 Z" id="路径" fill-opacity="0.8" fill="#000000" fill-rule="nonzero"></path>
    </g>
</svg>