<?xml version="1.0" encoding="UTF-8"?>
<svg width="120px" height="120px" viewBox="0 0 120 120" version="1.1" xmlns="http://www.w3.org/2000/svg" xmlns:xlink="http://www.w3.org/1999/xlink">
    <title>custom-feed</title>
    <g id="custom-feed" stroke="none" stroke-width="1" fill="none" fill-rule="evenodd">
        <path d="M11.3447308,120 C14.4079855,120 17.0344767,118.899102 19.2242045,116.697306 C21.4140149,114.495567 22.5089201,111.880408 22.5089201,108.851826 C22.5089201,105.709779 21.4258774,103.052527 19.259792,100.88007 C17.0936239,98.7076243 14.4552702,97.6214015 11.3447308,97.6214015 C9.28743329,97.6214015 7.39678948,98.1375627 5.67279942,99.169885 C3.94880936,100.202207 2.57234527,101.58174 1.54340716,103.308482 C0.514469055,105.03522 -1.42108547e-14,106.943525 -1.42108547e-14,109.033397 C-1.42108547e-14,110.977003 0.524554252,112.786486 1.57366276,114.461845 C2.62285392,116.137247 4.00940321,117.479123 5.7333106,118.487474 C7.45730066,119.495825 9.32777408,120 11.3447308,120 Z" id="路径" fill="#000000" fill-rule="nonzero"></path>
        <path d="M1.73783654,71.3401057 C1.73783654,73.0649534 2.34422969,74.5336852 3.55701598,75.746301 C4.76980227,76.9589993 6.23550382,77.5653485 7.95412062,77.5653485 C12.6811848,77.5653485 17.1337167,78.4558258 21.3117163,80.2367803 C25.4897159,82.0177348 29.1585784,84.4956025 32.3183037,87.6703834 C35.478029,90.8452386 37.9588222,94.5126018 39.7606832,98.6724729 C41.5626269,102.832351 42.4635987,107.291208 42.4635987,112.049042 C42.4635987,113.74111 43.0682559,115.19976 44.2775703,116.424994 C45.4868846,117.650252 46.9379543,118.262881 48.6307795,118.262881 C50.3563402,118.262881 51.8237777,117.650252 53.0330921,116.424994 C54.2424064,115.19976 54.8470636,113.74111 54.8470636,112.049042 C54.8470636,105.606073 53.6236961,99.5492416 51.1769611,93.8785463 C48.7302261,88.2078675 45.3544544,83.2210132 41.0496458,78.9179832 C36.7449199,74.6150358 31.7642378,71.2488806 26.1075995,68.8195175 C20.4509612,66.3901545 14.3998016,65.1754729 7.95412062,65.1754729 C6.23550382,65.1754729 4.76980227,65.7816569 3.55701598,66.9940247 C2.34422969,68.2063099 1.73783654,69.6550036 1.73783654,71.3401057 Z" id="路径" fill-opacity="0.8" fill="#000000" fill-rule="nonzero"></path>
        <path d="M1.73783654,39.6563773 C1.73783654,41.340901 2.34422969,42.7976925 3.55701598,44.0267519 C4.76980227,45.2557287 6.23550382,45.8702171 7.95412062,45.8702171 C17.1237142,45.8702171 25.7115076,47.5703167 33.7175008,50.9705161 C41.7234114,54.3707154 48.7563485,59.1012803 54.816312,65.1622106 C60.8762755,71.2231409 65.6152849,78.2615594 69.03334,86.2774659 C72.4513126,94.2933642 74.1602988,102.883889 74.1602988,112.049042 C74.1602988,113.74111 74.7667333,115.19976 75.9796023,116.424994 C77.1923886,117.650252 78.6454836,118.262881 80.3388874,118.262881 C82.0575042,118.262881 83.5232058,117.650252 84.7359921,116.424994 C85.948861,115.19976 86.5552955,113.74111 86.5552955,112.049042 C86.5552955,103.362383 85.2346307,95.0889558 82.593301,87.2287599 C79.9519713,79.3686135 76.2302856,72.1574954 71.4282437,65.5954057 C66.6261192,59.0332333 60.9527411,53.3538535 54.4081095,48.5572661 C47.8634778,43.7606788 40.6594644,40.0405307 32.7960693,37.3968218 C24.9325914,34.7531129 16.6519419,33.4312584 7.95412062,33.4312584 C6.23550382,33.4312584 4.76980227,34.0456229 3.55701598,35.2743517 C2.34422969,36.502998 1.73783654,37.9636732 1.73783654,39.6563773 Z" id="路径" fill-opacity="0.6" fill="#000000" fill-rule="nonzero"></path>
        <path d="M1.73783654,6.22511891 C1.73783654,7.91030362 2.34422969,9.35903858 3.55701598,10.5713238 C4.76980227,11.783609 6.23550382,12.3897516 7.95412062,12.3897516 C18.9760838,12.3897516 29.4669622,14.0649793 39.4267557,17.4154345 C49.3866319,20.7658071 58.5163394,25.4954217 66.815878,31.6042782 C75.1154166,37.7131348 82.3143874,44.9173531 88.4127904,53.2169332 C94.5111934,61.5165134 99.2344137,70.6441427 102.582451,80.5998213 C105.930075,90.5555577 107.603887,101.038631 107.603887,112.049042 C107.603887,113.74111 108.210652,115.19976 109.424183,116.424994 C110.637713,117.650252 112.107093,118.262881 113.832323,118.262881 C115.517874,118.262881 116.967001,117.650252 118.179705,116.424994 C119.393235,115.19976 120,113.74111 120,112.049042 C120,99.6800554 118.114812,87.8913645 114.344436,76.6829692 C110.574887,65.4745986 105.259162,55.2076062 98.3972596,45.881992 C91.5350269,36.5564605 83.4393416,28.4620954 74.1102035,21.5988969 C64.7810655,14.7357809 54.5163187,9.42018582 43.3159632,5.65211149 C32.1155251,1.88403716 20.3282442,0 7.95412062,0 C6.23550382,0 4.76980227,0.606307874 3.55701598,1.81892362 C2.34422969,3.03153937 1.73783654,4.50027113 1.73783654,6.22511891 Z" id="路径" fill-opacity="0.4" fill="#000000" fill-rule="nonzero"></path>
    </g>
</svg>