<?xml version="1.0" encoding="UTF-8"?>
<svg id="_图层_2" data-name="图层 2" xmlns="http://www.w3.org/2000/svg" viewBox="0 0 466 466">
  <defs>
    <style>
      .cls-1 {
        fill: #fff;
      }
    </style>
  </defs>
  <g id="_图层_1-2" data-name="图层 1">
    <g id="Light">
      <path class="cls-1" d="M296.89,6c5.56,0,11.12,0,16.68.04,5.32.03,10.64.09,15.95.24,11.59.31,23.27,1,34.73,3.06,11.62,2.09,22.44,5.5,33,10.88,10.38,5.28,19.88,12.19,28.11,20.42,8.24,8.24,15.14,17.73,20.42,28.11,5.38,10.56,8.79,21.38,10.88,33,2.06,11.46,2.74,23.15,3.06,34.73.14,5.32.21,10.63.24,15.95.04,6.31.04,12.63.04,18.94v123.25c0,6.31,0,12.63-.04,18.94-.03,5.32-.09,10.64-.24,15.95-.31,11.59-1,23.27-3.06,34.73-2.09,11.62-5.5,22.44-10.88,33-5.28,10.38-12.19,19.88-20.42,28.11-8.24,8.24-17.73,15.14-28.11,20.42-10.56,5.38-21.38,8.79-33,10.88-11.46,2.06-23.15,2.74-34.73,3.06-5.32.14-10.63.21-15.95.24-5.56.04-11.12.04-16.68.04-.76,0-1.51,0-2.27,0h-123.25c-.76,0-1.51,0-2.27,0-5.56,0-11.12,0-16.68-.04-5.32-.03-10.64-.09-15.95-.24-11.59-.31-23.27-1-34.73-3.06-11.62-2.09-22.44-5.5-33-10.88-10.38-5.28-19.88-12.19-28.11-20.42-8.24-8.24-15.14-17.73-20.42-28.11-5.38-10.56-8.79-21.38-10.88-33-2.06-11.46-2.74-23.15-3.06-34.73-.14-5.32-.21-10.63-.24-15.95-.04-6.31-.04-12.63-.04-18.94v-123.25c0-6.31,0-12.63.04-18.94.03-5.32.09-10.64.24-15.95.31-11.59,1-23.27,3.06-34.73,2.09-11.62,5.5-22.44,10.88-33,5.28-10.38,12.19-19.88,20.42-28.11,8.24-8.24,17.73-15.14,28.11-20.42,10.56-5.38,21.38-8.79,33-10.88,11.46-2.06,23.15-2.74,34.73-3.06,5.32-.14,10.63-.21,15.95-.24,5.56-.04,11.12-.04,16.68-.04.76,0,1.51,0,2.27,0h123.25c.76,0,1.51,0,2.27,0M296.89,0h-1.13s-1.13,0-1.13,0h-125.52c-5.91,0-11.24,0-16.71.04-6.31.04-11.42.11-16.08.24-10.55.29-23.03.88-35.63,3.15-12.69,2.28-24.03,6.02-34.66,11.43-10.96,5.58-20.93,12.82-29.64,21.53-8.71,8.71-15.95,18.68-21.53,29.64-5.41,10.63-9.15,21.97-11.43,34.66-2.26,12.6-2.86,25.08-3.15,35.63-.13,4.65-.2,9.76-.24,16.08C0,158.36,0,164.41,0,170.26v125.47c0,5.85,0,11.91.04,17.87.04,6.31.11,11.42.24,16.08.29,10.55.88,23.03,3.15,35.63,2.28,12.69,6.02,24.03,11.43,34.66,5.58,10.96,12.82,20.93,21.53,29.64,8.71,8.71,18.68,15.95,29.64,21.53,10.63,5.41,21.97,9.15,34.66,11.43,12.6,2.26,25.08,2.86,35.63,3.15,4.65.13,9.76.2,16.08.24,5.47.03,10.8.04,16.71.04h1.13s1.13,0,1.13,0h125.52c5.91,0,11.24,0,16.71-.04,6.32-.04,11.43-.11,16.08-.24,10.55-.29,23.03-.88,35.63-3.15,12.69-2.28,24.03-6.02,34.66-11.43,10.96-5.58,20.93-12.82,29.64-21.53,8.71-8.71,15.95-18.68,21.53-29.64,5.41-10.63,9.15-21.97,11.43-34.66,2.26-12.6,2.86-25.08,3.15-35.63.13-4.65.2-9.76.24-16.08.04-5.96.04-12.02.04-17.87v-125.47c0-5.85,0-11.91-.04-17.87-.04-6.32-.11-11.43-.24-16.08-.29-10.55-.88-23.03-3.15-35.63-2.28-12.69-6.02-24.03-11.43-34.66-5.58-10.96-12.82-20.93-21.53-29.64-8.71-8.71-18.68-15.95-29.64-21.53-10.63-5.41-21.97-9.15-34.66-11.43-12.6-2.26-25.08-2.86-35.63-3.15-4.66-.13-9.77-.2-16.08-.24-5.47-.03-10.8-.04-16.71-.04h0Z"/>
    </g>
  </g>
</svg>