<?xml version="1.0" encoding="UTF-8"?>
<svg width="120px" height="120px" viewBox="0 0 120 120" version="1.1" xmlns="http://www.w3.org/2000/svg" xmlns:xlink="http://www.w3.org/1999/xlink">
    <title>main-docsets</title>
    <g id="main-docsets" stroke="none" stroke-width="1" fill="none" fill-rule="evenodd">
        <path d="M6.89988576,114.686098 L15.7722727,114.686098 C18.0060267,114.686098 19.7144593,114.083354 20.8975705,112.877866 C22.0806818,111.672326 22.6722374,109.972577 22.6722374,107.778621 L22.6722374,25.4070983 C22.6722374,23.2179364 22.0806818,21.5205061 20.8975705,20.3148074 C19.7144593,19.1091087 18.0060267,18.5062594 15.7722727,18.5062594 L6.89988576,18.5062594 C4.64529047,18.5062594 2.93164753,19.1091087 1.75895694,20.3148074 C0.586318981,21.5205061 0,23.2179364 0,25.4070983 L0,107.778621 C0,109.972577 0.586318981,111.672326 1.75895694,112.877866 C2.93164753,114.083354 4.64529047,114.686098 6.89988576,114.686098 Z" id="路径" fill-opacity="0.8" fill="#000000" fill-rule="nonzero"></path>
        <path d="M71.8197279,114.686098 L82.9816561,114.686098 C85.2105155,114.686098 86.9165009,114.083354 88.0996121,112.877866 C89.2827233,111.672326 89.874279,109.972577 89.874279,107.778621 L89.874279,11.9073984 C89.874279,9.71396889 89.2827233,8.01424671 88.0996121,6.8082319 C86.9165009,5.60274397 85.2105155,5 82.9816561,5 L71.8197279,5 C69.56508,5 67.8514633,5.60274397 66.678878,6.8082319 C65.5062927,8.01424671 64.92,9.71396889 64.92,11.9073984 L64.92,107.778621 C64.92,109.972577 65.5062927,111.672326 66.678878,112.877866 C67.8514633,114.083354 69.56508,114.686098 71.8197279,114.686098 Z" id="路径" fill-opacity="0.8" fill="#000000" fill-rule="nonzero"></path>
        <path d="M106.731448,114.93149 L113.850641,114.015045 C116.079501,113.769838 117.706805,112.984875 118.732554,111.660155 C119.758303,110.335436 120.161445,108.578521 119.94198,106.389412 L111.245481,26.0311279 C111.021279,23.8420188 110.263414,22.2066016 108.971886,21.1248764 C107.680358,20.0431511 105.909639,19.6355613 103.659727,19.902107 L96.5642178,20.8499271 C94.340095,21.0951343 92.7088435,21.8747499 91.6704634,23.1887739 C90.6320833,24.5028506 90.23552,26.2546543 90.4807735,28.444185 L99.1764832,108.833765 C99.3959482,111.001641 100.147498,112.6212 101.431131,113.69244 C102.714238,114.763681 104.481011,115.176697 106.731448,114.93149 Z" id="路径" fill-opacity="0.4" fill="#000000" fill-rule="nonzero"></path>
        <path d="M52.9873777,35.9088318 C55.241973,35.9088318 56.9555896,36.5116021 58.1282275,37.7171427 C59.3009181,38.9226307 59.8872634,40.6223792 59.8872634,42.8163883 L59.8872634,42.8163883 L59.8872634,107.778621 C59.8872634,109.972577 59.3009181,111.672326 58.1282275,112.877866 C56.9555896,114.083354 55.241973,114.686098 52.9873777,114.686098 L52.9873777,114.686098 L34.0999647,114.686098 C31.8453168,114.686098 30.1316738,114.083354 28.9590359,112.877866 C27.7863453,111.672326 27.2,109.972577 27.2,107.778621 L27.2,107.778621 L27.2,42.8163883 C27.2,40.6223792 27.7863453,38.9226307 28.9590359,37.7171427 C30.1316738,36.5116021 31.8453168,35.9088318 34.0999647,35.9088318 L34.0999647,35.9088318 Z M49.0404807,97.1400055 L38.1274638,97.1400055 C37.2778131,97.1400055 36.5618939,97.425097 35.9797064,97.9952802 C35.3974662,98.5654633 35.1063461,99.2652048 35.1063461,100.094505 C35.1063461,100.919326 35.3963609,101.622071 35.9763907,102.202739 C36.5564205,102.783407 37.2734448,103.073741 38.1274638,103.073741 L38.1274638,103.073741 L49.0404807,103.073741 C49.8897104,103.073741 50.5979193,102.783407 51.1651074,102.202739 C51.7322956,101.622071 52.0158897,100.919326 52.0158897,100.094505 C52.0158897,99.2652048 51.7322956,98.5654633 51.1651074,97.9952802 C50.5979193,97.425097 49.8897104,97.1400055 49.0404807,97.1400055 L49.0404807,97.1400055 Z M49.0404807,47.5525649 L38.1274638,47.5525649 C37.2734448,47.5525649 36.5564205,47.8376828 35.9763907,48.4079187 C35.3963609,48.9781018 35.1063461,49.6673849 35.1063461,50.4757678 C35.1063461,51.3215061 35.3974662,52.0347092 35.9797064,52.6153772 C36.5618939,53.1959924 37.2778131,53.4863 38.1274638,53.4863 L38.1274638,53.4863 L49.0404807,53.4863 C49.8897104,53.4863 50.5979193,53.1959924 51.1651074,52.6153772 C51.7322956,52.0347092 52.0158897,51.3215061 52.0158897,50.4757678 C52.0158897,49.6673849 51.7416373,48.9781018 51.1931327,48.4079187 C50.644628,47.8376828 49.9270773,47.5525649 49.0404807,47.5525649 L49.0404807,47.5525649 Z" id="形状结合" fill="#000000" fill-rule="nonzero"></path>
        <path d="M49.0404807,97.1400055 C49.8897104,97.1400055 50.5979193,97.425097 51.1651074,97.9952802 C51.7322956,98.5654633 52.0158897,99.2652048 52.0158897,100.094505 C52.0158897,100.919326 51.7322956,101.622071 51.1651074,102.202739 C50.5979193,102.783407 49.8897104,103.073741 49.0404807,103.073741 L38.1274638,103.073741 C37.2734448,103.073741 36.5564205,102.783407 35.9763907,102.202739 C35.3963609,101.622071 35.1063461,100.919326 35.1063461,100.094505 C35.1063461,99.2652048 35.3974662,98.5654633 35.9797064,97.9952802 C36.5618939,97.425097 37.2778131,97.1400055 38.1274638,97.1400055 L49.0404807,97.1400055 Z M49.0404807,47.5525649 C49.9270773,47.5525649 50.644628,47.8376828 51.1931327,48.4079187 C51.7416373,48.9781018 52.0158897,49.6673849 52.0158897,50.4757678 C52.0158897,51.3215061 51.7322956,52.0347092 51.1651074,52.6153772 C50.5979193,53.1959924 49.8897104,53.4863 49.0404807,53.4863 L38.1274638,53.4863 C37.2778131,53.4863 36.5618939,53.1959924 35.9797064,52.6153772 C35.3974662,52.0347092 35.1063461,51.3215061 35.1063461,50.4757678 C35.1063461,49.6673849 35.3963609,48.9781018 35.9763907,48.4079187 C36.5564205,47.8376828 37.2734448,47.5525649 38.1274638,47.5525649 L49.0404807,47.5525649 Z" id="形状结合" fill-opacity="0.2" fill="#000000" fill-rule="nonzero"></path>
    </g>
</svg>